<?xml version="1.0" standalone="no"?><!DOCTYPE svg PUBLIC "-//W3C//DTD SVG 1.1//EN" "http://www.w3.org/Graphics/SVG/1.1/DTD/svg11.dtd"><svg t="1554630894893" class="icon" style="" viewBox="0 0 1024 1024" version="1.1" xmlns="http://www.w3.org/2000/svg" p-id="2201" xmlns:xlink="http://www.w3.org/1999/xlink" width="200" height="200"><defs><style type="text/css"></style></defs><path d="M512 807.936a287.232 287.232 0 1 1 202.752-490.496A287.232 287.232 0 0 1 512 807.936z m0-512a226.048 226.048 0 1 0 159.744 66.304A224.512 224.512 0 0 0 512 294.656z" fill="" p-id="2202"></path><path d="M804.864 844.8a30.72 30.72 0 0 1-21.76-8.96l-104.192-104.192a30.72 30.72 0 1 1 43.52-43.52l104.192 104.192a30.72 30.72 0 0 1-21.76 51.2z" fill="" p-id="2203"></path></svg>